<svg width="234" height="32" viewBox="0 0 234 32" fill="none" xmlns="http://www.w3.org/2000/svg">
<path fill-rule="evenodd" clip-rule="evenodd" d="M92.8639 6.28925C93.6178 6.97487 94.5797 7.31768 95.7496 7.31768C96.8934 7.31768 97.8293 6.97487 98.5573 6.28925C99.3112 5.57726 99.6881 4.70705 99.6881 3.67862C99.6881 2.62382 99.3112 1.75361 98.5573 1.06799C97.8293 0.355995 96.8934 0 95.7496 0C94.5797 0 93.6178 0.355995 92.8639 1.06799C92.136 1.75361 91.772 2.62382 91.772 3.67862C91.772 4.70705 92.136 5.57726 92.8639 6.28925ZM99.0642 10.6441C99.0642 10.074 98.602 9.61187 98.0319 9.61187H93.4282C92.8581 9.61187 92.396 10.074 92.396 10.6441V30.6513C92.396 31.2214 92.8581 31.6836 93.4282 31.6836H98.0319C98.602 31.6836 99.0642 31.2214 99.0642 30.6513V10.6441ZM65.3346 26.9803C65.3346 26.4102 64.8725 25.9481 64.3024 25.9481H62.9559C62.228 25.9481 61.708 25.803 61.3961 25.513C61.0841 25.2229 60.9281 24.7483 60.9281 24.089V16.2609C60.9281 15.6908 61.3903 15.2287 61.9604 15.2287H64.2634C64.8335 15.2287 65.2956 14.7665 65.2956 14.1964V10.6441C65.2956 10.074 64.8335 9.61187 64.2634 9.61187H61.9604C61.3903 9.61187 60.9281 9.14971 60.9281 8.57961V5.26465C60.9281 4.69454 60.466 4.23239 59.8959 4.23239H55.2922C54.7221 4.23239 54.2599 4.69455 54.2599 5.26465V8.57961C54.2599 9.14971 53.7978 9.61187 53.2277 9.61187H52.6405C52.0704 9.61187 51.6082 10.074 51.6082 10.6441V14.1964C51.6082 14.7665 52.0704 15.2287 52.6405 15.2287H53.2277C53.7978 15.2287 54.2599 15.6908 54.2599 16.2609V24.0099C54.2599 26.726 54.9358 28.6906 56.2877 29.9036C57.6395 31.0902 59.5243 31.6836 61.942 31.6836H64.3024C64.8725 31.6836 65.3346 31.2214 65.3346 30.6513V26.9803ZM51.2142 21.3517C51.2374 20.9905 51.249 20.6372 51.249 20.2917C51.249 18.0766 50.7811 16.1384 49.8452 14.4771C48.9353 12.8158 47.6615 11.5369 46.0236 10.6403C44.3858 9.74372 42.514 9.29543 40.4083 9.29543C38.2505 9.29543 36.3398 9.7569 34.676 10.6799C33.0121 11.6028 31.7123 12.9213 30.7764 14.6354C29.8665 16.3494 29.4116 18.3535 29.4116 20.6477C29.4116 22.9419 29.8795 24.946 30.8154 26.6601C31.7513 28.3741 33.0511 29.6926 34.715 30.6156C36.3788 31.5385 38.2765 32 40.4083 32C42.1761 32 43.7749 31.6704 45.2047 31.0111C46.6346 30.3519 47.8174 29.4421 48.7533 28.2818C49.4284 27.4675 49.9562 26.5818 50.3368 25.6246C50.585 25.0002 50.0907 24.3659 49.4188 24.3659H44.3085C43.9043 24.3659 43.5479 24.6094 43.3258 24.9472C42.6443 25.9836 41.5938 26.5019 40.1743 26.5019C39.0564 26.5019 38.1076 26.1459 37.3276 25.4339C36.7895 24.9068 36.4169 24.2185 36.2099 23.3689C36.0677 22.7851 36.5534 22.2695 37.1543 22.2695H50.2106C50.7355 22.2695 51.1805 21.8756 51.2142 21.3517ZM44.3093 17.4884C44.4436 18.0424 43.9627 18.5117 43.3926 18.5117H37.2785C36.6474 18.5117 36.1516 17.9428 36.3717 17.3513C36.6201 16.6836 36.9908 16.1343 37.4836 15.7033C38.2635 15.0441 39.2124 14.7145 40.3303 14.7145C41.5002 14.7145 42.4751 15.0573 43.255 15.7429C43.7898 16.2131 44.1413 16.7949 44.3093 17.4884ZM66.1633 20.6082C66.1633 18.3403 66.5792 16.3494 67.4111 14.6354C68.269 12.9213 69.4259 11.6028 70.8817 10.6799C72.3376 9.7569 73.9624 9.29543 75.7562 9.29543C77.29 9.29543 78.6288 9.61187 79.7727 10.2447C80.1573 10.4528 80.5124 10.6823 80.838 10.9331C81.3853 11.3546 82.4634 10.9855 82.4634 10.2947C82.4634 9.91759 82.7691 9.61187 83.1462 9.61187H88.0994C88.6695 9.61187 89.1316 10.074 89.1316 10.6441V30.6513C89.1316 31.2214 88.6695 31.6836 88.0994 31.6836H83.1649C82.7775 31.6836 82.4634 31.3695 82.4634 30.982C82.4634 30.279 81.3922 29.9075 80.8359 30.3373C80.4985 30.5979 80.1311 30.8357 79.7337 31.0507C78.5898 31.6836 77.251 32 75.7172 32C73.9494 32 72.3376 31.5385 70.8817 30.6156C69.4259 29.6663 68.269 28.3346 67.4111 26.6205C66.5792 24.8801 66.1633 22.876 66.1633 20.6082ZM82.4634 20.6477C82.4634 18.96 81.9955 17.6284 81.0596 16.6527C80.1497 15.677 79.0318 15.1891 77.7059 15.1891C76.3801 15.1891 75.2492 15.677 74.3133 16.6527C73.4034 17.602 72.9485 18.9205 72.9485 20.6082C72.9485 22.2958 73.4034 23.6407 74.3133 24.6428C75.2492 25.6185 76.3801 26.1063 77.7059 26.1063C79.0318 26.1063 80.1497 25.6185 81.0596 24.6428C81.9955 23.6671 82.4634 22.3354 82.4634 20.6477ZM107.973 2.41286C108.543 2.41286 109.005 2.87502 109.005 3.44512V30.6513C109.005 31.2214 108.543 31.6836 107.973 31.6836H103.369C102.799 31.6836 102.337 31.2214 102.337 30.6513V3.44511C102.337 2.87501 102.799 2.41286 103.369 2.41286H107.973ZM20.2438 32C19.8402 32 19.47 31.7751 19.2825 31.416L14.1724 21.6308H12.6805H12.6398V30.9093C12.6398 31.5117 12.1537 32 11.5542 32H4.68799C4.08845 32 3.60242 31.5117 3.60242 30.9093V24.5895L3.60242 24.0925C-2.65021 24.0925 -0.863873 20.2277 9.74831 15.0015C9.88467 15.1887 10.1288 15.2724 10.356 15.1974L10.6073 15.1143C10.6697 15.0937 10.7343 15.0848 10.8001 15.0867C11.4617 15.1061 13.7422 15.0811 15.9019 13.9715C17.1801 13.3139 18.3517 12.3913 19.2651 11.503C20.528 10.2781 21.2951 9.11916 21.1636 8.82455C21.0322 8.52994 19.6613 8.33003 17.9125 8.45533C16.647 8.54566 15.1785 8.80693 13.8378 9.32374C11.5922 10.1906 10.0581 11.859 9.61604 12.3819C9.57384 12.4318 9.52455 12.4737 9.46803 12.5063L9.22211 12.6483C8.9807 12.7877 8.8836 13.0882 8.99736 13.3439L9.02586 13.4079C7.03855 14.0315 5.2299 14.6994 3.60242 15.3957V4.18746C3.60242 3.58509 4.08845 3.09677 4.68799 3.09677H17.0363C19.3703 3.09677 21.365 3.51862 23.0205 4.36231C24.676 5.17879 25.9108 6.30824 26.725 7.75068C27.5663 9.16591 27.987 10.7716 27.987 12.5679C27.987 14.5002 27.4442 16.2148 26.3586 17.7117C25.3002 19.2086 23.2512 20.9368 23.2512 20.9368L28.5965 30.3697C29.0085 31.0968 28.4859 32 27.6531 32H20.2438ZM11.2952 15.6327C11.9264 15.6179 12.9192 15.5409 14.0316 15.2534C13.0865 17.6396 10.028 18.5807 9.83142 18.1377C9.74191 17.936 10.0042 17.6195 10.334 17.2214C10.7016 16.7777 11.1531 16.2328 11.2952 15.6327ZM9.41412 11.7875C9.80597 11.3549 10.5155 10.6442 11.4841 9.97244C9.08325 9.07532 6.33426 10.7346 6.53109 11.1781C6.62059 11.3798 7.03032 11.3955 7.54563 11.4153C8.13761 11.438 8.86892 11.466 9.41412 11.7875ZM194.541 31.2523C194.735 31.523 195.048 31.6835 195.381 31.6835H200.919C201.794 31.6835 202.272 30.6648 201.714 29.9921L194.535 21.3413C194.22 20.9614 194.218 20.4114 194.53 20.0291L201.663 11.2971C202.213 10.623 201.734 9.61185 200.863 9.61185H195.334C195.005 9.61185 194.696 9.76837 194.502 10.0333L190.086 16.0506C189.495 16.8547 188.221 16.4373 188.221 15.4398V3.4451C188.221 2.875 187.759 2.41284 187.189 2.41284H182.585C182.015 2.41284 181.553 2.875 181.553 3.4451V30.6513C181.553 31.2214 182.015 31.6835 182.585 31.6835H187.189C187.759 31.6835 188.221 31.2214 188.221 30.6513V25.6417C188.221 24.6382 189.508 24.2248 190.093 25.0407L194.541 31.2523ZM126.021 31.144C126.202 31.4765 126.55 31.6835 126.929 31.6835H132.057C132.851 31.6835 133.348 30.8253 132.952 30.1371L128.17 21.8129C127.839 21.2372 128.133 20.5069 128.741 20.2396C130.148 19.621 131.25 18.7418 132.047 17.602C133.087 16.1516 133.607 14.5035 133.607 12.6576C133.607 11.0226 133.23 9.54593 132.476 8.22743C131.722 6.88256 130.578 5.82776 129.044 5.06303C127.536 4.2983 125.704 3.91593 123.546 3.91593H113.386C112.816 3.91593 112.354 4.37809 112.354 4.94819V30.6513C112.354 31.2214 112.816 31.6835 113.386 31.6835H117.99C118.56 31.6835 119.022 31.2214 119.022 30.6513V22.204C119.022 21.6503 119.471 21.2015 120.025 21.2015C120.392 21.2015 120.73 21.4025 120.906 21.7255L126.021 31.144ZM120.055 16.4153C119.485 16.4153 119.022 15.9532 119.022 15.3831V10.565C119.022 9.9949 119.485 9.53274 120.055 9.53274H123.156C124.378 9.53274 125.288 9.836 125.886 10.4425C126.51 11.049 126.821 11.8797 126.821 12.9345C126.821 14.042 126.51 14.899 125.886 15.5055C125.288 16.1121 124.378 16.4153 123.156 16.4153H120.055ZM139.85 30.6156C141.566 31.5385 143.49 32 145.622 32C147.753 32 149.677 31.5385 151.393 30.6156C153.135 29.6926 154.499 28.3741 155.487 26.6601C156.501 24.9196 157.008 22.9155 157.008 20.6477C157.008 18.3799 156.514 16.3889 155.526 14.6749C154.538 12.9345 153.187 11.6028 151.471 10.6798C149.755 9.75689 147.831 9.29541 145.7 9.29541C143.568 9.29541 141.644 9.75689 139.928 10.6798C138.212 11.6028 136.861 12.9345 135.873 14.6749C134.885 16.3889 134.391 18.3799 134.391 20.6477C134.391 22.9419 134.872 24.946 135.834 26.6601C136.822 28.3741 138.16 29.6926 139.85 30.6156ZM148.858 24.7219C147.974 25.6712 146.895 26.1458 145.622 26.1458C144.348 26.1458 143.282 25.6712 142.424 24.7219C141.592 23.7725 141.176 22.4145 141.176 20.6477C141.176 18.8545 141.605 17.4965 142.463 16.5735C143.321 15.6242 144.4 15.1496 145.7 15.1496C146.973 15.1496 148.039 15.6242 148.897 16.5735C149.781 17.5229 150.223 18.8809 150.223 20.6477C150.223 22.4145 149.768 23.7725 148.858 24.7219ZM158.176 20.6477C158.176 18.3535 158.631 16.3494 159.541 14.6353C160.477 12.9213 161.764 11.6028 163.402 10.6798C165.065 9.75689 166.963 9.29541 169.095 9.29541C171.825 9.29541 174.099 10.0206 175.919 11.4709C177.465 12.6859 178.565 14.3173 179.217 16.3651C179.417 16.9922 178.924 17.602 178.266 17.602H173.178C172.741 17.602 172.362 17.32 172.159 16.9326C171.51 15.6912 170.45 15.0704 168.978 15.0704C167.756 15.0704 166.781 15.5583 166.053 16.534C165.325 17.4833 164.962 18.8545 164.962 20.6477C164.962 22.4409 165.325 23.8253 166.053 24.801C166.781 25.7503 167.756 26.225 168.978 26.225C170.45 26.225 171.51 25.6042 172.159 24.3628C172.362 23.9754 172.741 23.6934 173.178 23.6934H178.26C178.92 23.6934 179.413 24.3064 179.209 24.9338C178.555 26.9361 177.459 28.5532 175.919 29.7849C174.073 31.2616 171.799 32 169.095 32C166.963 32 165.065 31.5385 163.402 30.6156C161.764 29.6926 160.477 28.3741 159.541 26.6601C158.631 24.946 158.176 22.9419 158.176 20.6477ZM209.735 3.91593C210.305 3.91593 210.767 4.37809 210.767 4.94819V30.6513C210.767 31.2214 210.305 31.6835 209.735 31.6835H205.131C204.561 31.6835 204.099 31.2214 204.099 30.6513V4.94819C204.099 4.37809 204.561 3.91593 205.131 3.91593H209.735ZM233.732 4.94819C233.732 4.37809 233.27 3.91593 232.7 3.91593H213.59C213.02 3.91593 212.558 4.37809 212.558 4.94819V8.30271C212.558 8.87281 213.02 9.33497 213.59 9.33497H218.779C219.349 9.33497 219.811 9.79712 219.811 10.3672V30.6513C219.811 31.2214 220.273 31.6835 220.843 31.6835H225.447C226.017 31.6835 226.479 31.2214 226.479 30.6513V10.3672C226.479 9.79713 226.941 9.33497 227.511 9.33497H232.7C233.27 9.33497 233.732 8.87281 233.732 8.30271V4.94819Z" fill="url(#paint0_linear_5059_195665)"/>
<defs>
<linearGradient id="paint0_linear_5059_195665" x1="-3.60232e-06" y1="11" x2="227" y2="41" gradientUnits="userSpaceOnUse">
<stop stop-color="#0C3FAE"/>
<stop offset="0.303153" stop-color="#1E90E5"/>
<stop offset="1" stop-color="#06AED4"/>
</linearGradient>
</defs>
</svg>
